<svg width="543" height="283" viewBox="0 0 543 283" fill="none" xmlns="http://www.w3.org/2000/svg">
<path d="M2.53516 82.9214V58.9214C2.53516 27.9934 27.6072 2.92139 58.5352 2.92139H360.035C382.955 2.92139 401.535 21.5016 401.535 44.4214V44.4214M2.53516 196.421V224.921C2.53516 255.849 27.6072 280.921 58.5352 280.921H345.535C376.463 280.921 401.535 255.849 401.535 224.921V162.671C401.535 141.421 411.035 142.421 434.035 142.421C479.035 142.421 489.535 148.421 489.535 121.921C489.535 92.4214 489.535 85.9214 489.535 55.4214C489.535 24.9214 511.035 2.92139 542.035 2.92139" stroke="#00569F" stroke-width="4"/>
<path d="M386.535 66.3667L387.099 65.3222C392.32 55.6522 399.438 44.6029 413.546 24.3878L414.95 22.3765H433.103V63.0605H428.399V27.0759H417.404C403.308 47.2734 396.323 58.1362 391.238 67.5535V74.2859H421.207V86.677H428.399V78.9854H433.103V91.3765H416.504V78.9854H386.535V66.3667Z" fill="#00569F"/>
<path d="M2.53504 129.886C3.85853 129.886 4.93043 128.815 4.93043 127.492V127.24C4.93043 125.917 3.85853 124.846 2.53504 124.846C1.21156 124.846 0.139648 125.917 0.139648 127.24V127.492C0.139648 128.815 1.21156 129.886 2.53504 129.886Z" fill="#DBDBDB"/>
<path d="M2.53504 157.904C3.85853 157.904 4.93043 156.832 4.93043 155.509V155.258C4.93043 153.935 3.85853 152.863 2.53504 152.863C1.21156 152.863 0.139648 153.935 0.139648 155.258V155.509C0.139648 156.832 1.21156 157.904 2.53504 157.904Z" fill="#DBDBDB"/>
<path d="M2.53504 101.869C3.85853 101.869 4.93043 100.797 4.93043 99.4741V99.2226C4.93043 97.8996 3.85853 96.8281 2.53504 96.8281C1.21156 96.8281 0.139648 97.8996 0.139648 99.2226V99.4741C0.139648 100.797 1.21156 101.869 2.53504 101.869Z" fill="#DBDBDB"/>
<path d="M2.53504 185.921C3.85853 185.921 4.93043 184.85 4.93043 183.527V183.275C4.93043 181.952 3.85853 180.881 2.53504 180.881C1.21156 180.881 0.139648 181.952 0.139648 183.275V183.527C0.139648 184.85 1.21156 185.921 2.53504 185.921Z" fill="#DBDBDB"/>
</svg>
