<svg width="529" height="279" viewBox="0 0 529 279" fill="none" xmlns="http://www.w3.org/2000/svg">
<path d="M473.761 0.116795H195.231C164.812 0.116795 140.06 24.8545 140.06 55.2614V124.844C140.06 131.508 134.64 136.926 127.974 136.926H70.4131C61.1049 136.926 53.5305 144.498 53.5305 153.802V223.385C53.5305 251.151 30.9329 273.741 3.15614 273.741C1.83266 273.741 0.760742 274.812 0.760742 276.135C0.760742 277.458 1.83266 278.53 3.15614 278.53C33.5743 278.53 58.3267 253.792 58.3267 223.379V153.797C58.3267 147.133 63.7464 141.715 70.4131 141.715H127.974C137.282 141.715 144.856 134.143 144.856 124.839V55.2559C144.856 27.4896 167.454 4.90033 195.231 4.90033H473.761C501.537 4.90033 524.13 27.4896 524.13 55.2559C524.13 56.5789 525.202 57.6504 526.525 57.6504C527.849 57.6504 528.92 56.5789 528.92 55.2559C528.92 24.849 504.173 0.111328 473.755 0.111328L473.761 0.116795Z" fill="#00C1EC"/>
<path d="M525.156 164.165C523.833 164.165 522.761 165.237 522.761 166.56V166.811C522.761 168.134 523.833 169.206 525.156 169.206C526.48 169.206 527.552 168.134 527.552 166.811V166.56C527.552 165.237 526.48 164.165 525.156 164.165Z" fill="#F68C3E"/>
<path d="M525.156 136.147C523.833 136.147 522.761 137.219 522.761 138.542V138.793C522.761 140.116 523.833 141.188 525.156 141.188C526.48 141.188 527.552 140.116 527.552 138.793V138.542C527.552 137.219 526.48 136.147 525.156 136.147Z" fill="#F68C3E"/>
<path d="M525.156 192.183C523.833 192.183 522.761 193.254 522.761 194.577V194.829C522.761 196.152 523.833 197.223 525.156 197.223C526.48 197.223 527.552 196.152 527.552 194.829V194.577C527.552 193.254 526.48 192.183 525.156 192.183Z" fill="#F68C3E"/>
<path d="M525.156 80.1113C523.833 80.1113 522.761 81.1828 522.761 82.5058V82.7573C522.761 84.0803 523.833 85.1518 525.156 85.1518C526.48 85.1518 527.552 84.0803 527.552 82.7573V82.5058C527.552 81.1828 526.48 80.1113 525.156 80.1113Z" fill="#F68C3E"/>
<path d="M525.156 108.129C523.833 108.129 522.761 109.2 522.761 110.523V110.775C522.761 112.098 523.833 113.169 525.156 113.169C526.48 113.169 527.552 112.098 527.552 110.775V110.523C527.552 109.2 526.48 108.129 525.156 108.129Z" fill="#F68C3E"/>
<path d="M525.503 220.337C524.18 220.337 523.108 221.408 523.108 222.731C523.108 250.498 500.51 273.087 472.739 273.087H185.809C158.032 273.087 135.44 250.498 135.44 222.731V216.614L131.972 218.347C131.803 218.434 131.633 218.516 131.453 218.598C127.384 220.528 122.221 221.501 116.113 221.501C111.562 221.501 106.996 220.944 102.544 219.834C98.9729 218.948 95.7626 217.751 92.9789 216.275L97.808 206.292C100.039 207.539 102.468 208.55 105.065 209.31C108.587 210.332 112.115 210.852 115.533 210.852C119.263 210.852 122.325 210.108 124.639 208.649C127.264 206.987 128.647 204.488 128.647 201.41C128.647 198.065 126.996 192.45 115.921 192.45H110.305V183.72L125.464 167.357H95.7243V157.38H139.788V166.012L131.289 175.147C130.386 176.115 130.441 177.635 131.415 178.531C132.383 179.433 133.903 179.379 134.8 178.406L144.578 167.887V152.58H90.9281V172.141H114.488L105.508 181.833V197.234H115.921C123.856 197.234 123.856 200.262 123.856 201.399C123.856 202.826 123.31 203.81 122.079 204.587C120.548 205.56 118.344 206.052 115.538 206.052C112.569 206.052 109.495 205.598 106.411 204.702C103.354 203.81 100.575 202.52 98.1635 200.875L95.8665 199.306L86.7607 218.134L88.5928 219.271C92.2078 221.518 96.5173 223.273 101.401 224.486C106.23 225.683 111.185 226.29 116.129 226.29C121.647 226.29 126.525 225.552 130.682 224.087C131.409 253.865 155.866 277.87 185.83 277.87H472.761C503.179 277.87 527.926 253.133 527.926 222.72C527.926 221.397 526.854 220.326 525.53 220.326L525.503 220.337Z" fill="#F68C3E"/>
</svg>
