<svg width="432" height="283" viewBox="0 0 432 283" fill="none" xmlns="http://www.w3.org/2000/svg">
<path d="M137.788 2.1792H137.536C136.213 2.1792 135.141 3.25071 135.141 4.5737C135.141 5.89669 136.213 6.9682 137.536 6.9682H137.788C139.111 6.9682 140.183 5.89669 140.183 4.5737C140.183 3.25071 139.117 2.1792 137.788 2.1792Z" fill="white"/>
<path d="M165.83 2.1792H165.578C164.255 2.1792 163.183 3.25071 163.183 4.5737C163.183 5.89669 164.255 6.9682 165.578 6.9682H165.83C167.153 6.9682 168.225 5.89669 168.225 4.5737C168.225 3.25071 167.153 2.1792 165.83 2.1792Z" fill="white"/>
<path d="M193.873 2.1792H193.621C192.297 2.1792 191.226 3.25071 191.226 4.5737C191.226 5.89669 192.297 6.9682 193.621 6.9682H193.873C195.196 6.9682 196.268 5.89669 196.268 4.5737C196.268 3.25071 195.196 2.1792 193.873 2.1792Z" fill="white"/>
<path d="M221.915 2.1792H221.663C220.339 2.1792 219.268 3.25071 219.268 4.5737C219.268 5.89669 220.339 6.9682 221.663 6.9682H221.915C223.238 6.9682 224.31 5.89669 224.31 4.5737C224.31 3.25071 223.238 2.1792 221.915 2.1792Z" fill="white"/>
<path d="M249.957 2.1792H249.705C248.381 2.1792 247.31 3.25071 247.31 4.5737C247.31 5.89669 248.381 6.9682 249.705 6.9682H249.957C251.28 6.9682 252.352 5.89669 252.352 4.5737C252.352 3.25071 251.28 2.1792 249.957 2.1792Z" fill="white"/>
<path d="M277.999 2.1792H277.748C276.424 2.1792 275.353 3.25071 275.353 4.5737C275.353 5.89669 276.424 6.9682 277.748 6.9682H277.999C279.323 6.9682 280.395 5.89669 280.395 4.5737C280.395 3.25071 279.323 2.1792 277.999 2.1792Z" fill="white"/>
<path d="M306.041 2.1792H305.79C304.466 2.1792 303.395 3.25071 303.395 4.5737C303.395 5.89669 304.466 6.9682 305.79 6.9682H306.041C307.365 6.9682 308.437 5.89669 308.437 4.5737C308.437 3.25071 307.365 2.1792 306.041 2.1792Z" fill="white"/>
<path d="M334.084 2.1792H333.833C332.509 2.1792 331.438 3.25071 331.438 4.5737C331.438 5.89669 332.509 6.9682 333.833 6.9682H334.084C335.408 6.9682 336.48 5.89669 336.48 4.5737C336.48 3.25071 335.408 2.1792 334.084 2.1792Z" fill="white"/>
<path d="M137.788 275.179H137.536C136.213 275.179 135.141 276.251 135.141 277.574C135.141 278.897 136.213 279.968 137.536 279.968H137.788C139.111 279.968 140.183 278.897 140.183 277.574C140.183 276.251 139.117 275.179 137.788 275.179Z" fill="white"/>
<path d="M165.83 275.179H165.578C164.255 275.179 163.183 276.251 163.183 277.574C163.183 278.897 164.255 279.968 165.578 279.968H165.83C167.153 279.968 168.225 278.897 168.225 277.574C168.225 276.251 167.153 275.179 165.83 275.179Z" fill="white"/>
<path d="M193.873 275.179H193.621C192.297 275.179 191.226 276.251 191.226 277.574C191.226 278.897 192.297 279.968 193.621 279.968H193.873C195.196 279.968 196.268 278.897 196.268 277.574C196.268 276.251 195.196 275.179 193.873 275.179Z" fill="white"/>
<path d="M221.915 275.179H221.663C220.339 275.179 219.268 276.251 219.268 277.574C219.268 278.897 220.339 279.968 221.663 279.968H221.915C223.238 279.968 224.31 278.897 224.31 277.574C224.31 276.251 223.238 275.179 221.915 275.179Z" fill="white"/>
<path d="M249.957 275.179H249.705C248.381 275.179 247.31 276.251 247.31 277.574C247.31 278.897 248.381 279.968 249.705 279.968H249.957C251.28 279.968 252.352 278.897 252.352 277.574C252.352 276.251 251.28 275.179 249.957 275.179Z" fill="white"/>
<path d="M277.999 275.179H277.748C276.424 275.179 275.353 276.251 275.353 277.574C275.353 278.897 276.424 279.968 277.748 279.968H277.999C279.323 279.968 280.395 278.897 280.395 277.574C280.395 276.251 279.323 275.179 277.999 275.179Z" fill="white"/>
<path d="M306.041 275.179H305.79C304.466 275.179 303.395 276.251 303.395 277.574C303.395 278.897 304.466 279.968 305.79 279.968H306.041C307.365 279.968 308.437 278.897 308.437 277.574C308.437 276.251 307.365 275.179 306.041 275.179Z" fill="white"/>
<path d="M334.084 275.179H333.833C332.509 275.179 331.438 276.251 331.438 277.574C331.438 278.897 332.509 279.968 333.833 279.968H334.084C335.408 279.968 336.48 278.897 336.48 277.574C336.48 276.251 335.408 275.179 334.084 275.179Z" fill="white"/>
<path d="M48.1406 223.679V223.679C48.1406 254.607 73.2127 280.179 104.141 280.179H110.141M429.141 126.679V57.1792C429.141 26.8035 404.516 2.1792 374.141 2.1792V2.1792" stroke="white" stroke-width="4"/>
<path d="M17.8557 212.609H35.4256V193.546H0.140625V157.179H53.1406V173.749H49.5105V170.083V160.845H3.77076V189.88H39.0557V216.275H17.8557V212.609Z" fill="white"/>
<path d="M16.5488 173.749V176.976H40.3625C43.8531 176.976 46.9154 178.288 49.3336 180.82C51.8408 183.262 53.1406 186.355 53.1406 189.88V216.275C53.1406 219.825 51.825 222.949 49.333 225.466C46.8907 227.932 43.8246 229.179 40.3625 229.179H12.9187V225.513H40.3625C42.8891 225.513 45.0236 224.633 46.7661 222.874C48.5957 221.026 49.5105 218.826 49.5105 216.275V189.88C49.5105 187.328 48.5957 185.173 46.7661 183.413C45.0236 181.565 42.8891 180.642 40.3625 180.642H12.9187V173.749H16.5488Z" fill="white"/>
</svg>
