<svg width="532" height="283" viewBox="0 0 532 283" fill="none" xmlns="http://www.w3.org/2000/svg">
<path d="M528.93 176.497C527.606 176.497 526.534 177.568 526.534 178.891V179.143C526.534 180.466 527.606 181.537 528.93 181.537C530.253 181.537 531.325 180.466 531.325 179.143V178.891C531.325 177.568 530.253 176.497 528.93 176.497Z" fill="#F68C3E"/>
<path d="M528.93 148.479C527.606 148.479 526.534 149.551 526.534 150.873V151.125C526.534 152.448 527.606 153.519 528.93 153.519C530.253 153.519 531.325 152.448 531.325 151.125V150.873C531.325 149.551 530.253 148.479 528.93 148.479Z" fill="#F68C3E"/>
<path d="M528.93 204.514C527.606 204.514 526.534 205.586 526.534 206.909V207.16C526.534 208.483 527.606 209.555 528.93 209.555C530.253 209.555 531.325 208.483 531.325 207.16V206.909C531.325 205.586 530.253 204.514 528.93 204.514Z" fill="#F68C3E"/>
<path d="M528.93 92.4429C527.606 92.4429 526.534 93.5144 526.534 94.8374V95.0888C526.534 96.4118 527.606 97.4834 528.93 97.4834C530.253 97.4834 531.325 96.4118 531.325 95.0888V94.8374C531.325 93.5144 530.253 92.4429 528.93 92.4429Z" fill="#F68C3E"/>
<path d="M528.93 120.46C527.606 120.46 526.534 121.532 526.534 122.855V123.106C526.534 124.429 527.606 125.501 528.93 125.501C530.253 125.501 531.325 124.429 531.325 123.106V122.855C531.325 121.532 530.253 120.46 528.93 120.46Z" fill="#F68C3E"/>
<path d="M528.534 78.4429V63.4429C528.534 29.7535 501.224 2.44287 467.534 2.44287H202.534C168.845 2.44287 141.534 29.7535 141.534 63.4429V111.443C141.534 133.443 143.034 141.943 118.534 141.943C94.0342 141.943 85.0342 141.943 74.5342 141.943C64.0342 141.943 55.5342 142.443 55.5342 161.443C55.5342 176.643 55.5342 201.443 55.5342 211.943V225.443C55.5342 255.819 30.9098 280.443 0.53418 280.443V280.443M528.534 223.943V223.943C528.534 255.147 503.238 280.443 472.034 280.443H201.534C168.397 280.443 141.534 253.58 141.534 220.443V220.443" stroke="#F68C3E" stroke-width="4"/>
<path fill-rule="evenodd" clip-rule="evenodd" d="M91.325 234.134L91.262 234.068C88.8023 231.504 87.5342 228.356 87.5342 224.814V177.981C87.5342 174.437 88.8073 171.297 91.3258 168.797C93.8955 166.245 97.086 164.898 100.711 164.898H142.187V181.698H105.802V191.66H130.358C133.957 191.66 137.115 192.991 139.608 195.558C142.194 198.034 143.534 201.169 143.534 204.743V224.814C143.534 228.413 142.178 231.582 139.608 234.133C137.089 236.634 133.928 237.898 130.358 237.898H100.711C97.1441 237.898 93.9738 236.639 91.3911 234.196L91.325 234.134ZM136.961 198.187C135.164 196.313 132.963 195.377 130.358 195.377H102.058V177.981H138.443V168.615H100.711C98.1053 168.615 95.8593 169.552 93.9727 171.425C92.1759 173.209 91.2775 175.394 91.2775 177.981V224.814C91.2775 227.401 92.1759 229.632 93.9727 231.505C95.8593 233.289 98.1053 234.181 100.711 234.181H130.358C132.963 234.181 135.164 233.289 136.961 231.505C138.848 229.632 139.791 227.401 139.791 224.814V204.743C139.791 202.156 138.848 199.971 136.961 198.187ZM129.01 204.743V224.814H102.058V204.743H129.01ZM105.802 208.46V221.098H125.267V208.46H105.802Z" fill="#F68C3E"/>
</svg>
