<svg width="440" height="279" viewBox="0 0 440 279" fill="none" xmlns="http://www.w3.org/2000/svg">
<path d="M384.123 4.789C411.899 4.789 434.497 27.3782 434.497 55.1446V122.89C434.497 124.213 435.569 125.285 436.892 125.285C438.216 125.285 439.288 124.213 439.288 122.89V55.1446C439.288 24.7377 414.541 0 384.117 0C382.794 0 381.722 1.07151 381.722 2.3945C381.722 3.71749 382.794 4.789 384.117 4.789H384.123Z" fill="#00C1EC"/>
<path d="M145.075 0H144.823C143.5 0 142.428 1.07151 142.428 2.3945C142.428 3.71749 143.5 4.789 144.823 4.789H145.075C146.398 4.789 147.47 3.71749 147.47 2.3945C147.47 1.07151 146.404 0 145.075 0Z" fill="#00C1EC"/>
<path d="M145.075 273H144.823C143.5 273 142.428 274.072 142.428 275.395C142.428 276.717 143.5 277.789 144.823 277.789H145.075C146.398 277.789 147.47 276.717 147.47 275.395C147.47 274.072 146.404 273 145.075 273Z" fill="#00C1EC"/>
<path d="M173.117 0H172.865C171.542 0 170.47 1.07151 170.47 2.3945C170.47 3.71749 171.542 4.789 172.865 4.789H173.117C174.44 4.789 175.512 3.71749 175.512 2.3945C175.512 1.07151 174.44 0 173.117 0Z" fill="#00C1EC"/>
<path d="M173.117 273H172.865C171.542 273 170.47 274.072 170.47 275.395C170.47 276.717 171.542 277.789 172.865 277.789H173.117C174.44 277.789 175.512 276.717 175.512 275.395C175.512 274.072 174.44 273 173.117 273Z" fill="#00C1EC"/>
<path d="M201.16 0H200.908C199.585 0 198.513 1.07151 198.513 2.3945C198.513 3.71749 199.585 4.789 200.908 4.789H201.16C202.483 4.789 203.555 3.71749 203.555 2.3945C203.555 1.07151 202.483 0 201.16 0Z" fill="#00C1EC"/>
<path d="M201.16 273H200.908C199.585 273 198.513 274.072 198.513 275.395C198.513 276.717 199.585 277.789 200.908 277.789H201.16C202.483 277.789 203.555 276.717 203.555 275.395C203.555 274.072 202.483 273 201.16 273Z" fill="#00C1EC"/>
<path d="M229.202 0H228.95C227.627 0 226.555 1.07151 226.555 2.3945C226.555 3.71749 227.627 4.789 228.95 4.789H229.202C230.525 4.789 231.597 3.71749 231.597 2.3945C231.597 1.07151 230.525 0 229.202 0Z" fill="#00C1EC"/>
<path d="M229.202 273H228.95C227.627 273 226.555 274.072 226.555 275.395C226.555 276.717 227.627 277.789 228.95 277.789H229.202C230.525 277.789 231.597 276.717 231.597 275.395C231.597 274.072 230.525 273 229.202 273Z" fill="#00C1EC"/>
<path d="M257.244 0H256.992C255.669 0 254.597 1.07151 254.597 2.3945C254.597 3.71749 255.669 4.789 256.992 4.789H257.244C258.567 4.789 259.639 3.71749 259.639 2.3945C259.639 1.07151 258.567 0 257.244 0Z" fill="#00C1EC"/>
<path d="M257.244 273H256.992C255.669 273 254.597 274.072 254.597 275.395C254.597 276.717 255.669 277.789 256.992 277.789H257.244C258.567 277.789 259.639 276.717 259.639 275.395C259.639 274.072 258.567 273 257.244 273Z" fill="#00C1EC"/>
<path d="M285.287 0H285.035C283.712 0 282.64 1.07151 282.64 2.3945C282.64 3.71749 283.712 4.789 285.035 4.789H285.287C286.61 4.789 287.682 3.71749 287.682 2.3945C287.682 1.07151 286.61 0 285.287 0Z" fill="#00C1EC"/>
<path d="M285.287 273H285.035C283.712 273 282.64 274.072 282.64 275.395C282.64 276.717 283.712 277.789 285.035 277.789H285.287C286.61 277.789 287.682 276.717 287.682 275.395C287.682 274.072 286.61 273 285.287 273Z" fill="#00C1EC"/>
<path d="M313.329 0H313.077C311.754 0 310.682 1.07151 310.682 2.3945C310.682 3.71749 311.754 4.789 313.077 4.789H313.329C314.652 4.789 315.724 3.71749 315.724 2.3945C315.724 1.07151 314.652 0 313.329 0Z" fill="#00C1EC"/>
<path d="M313.329 273H313.077C311.754 273 310.682 274.072 310.682 275.395C310.682 276.717 311.754 277.789 313.077 277.789H313.329C314.652 277.789 315.724 276.717 315.724 275.395C315.724 274.072 314.652 273 313.329 273Z" fill="#00C1EC"/>
<path d="M341.372 0H341.12C339.797 0 338.725 1.07151 338.725 2.3945C338.725 3.71749 339.797 4.789 341.12 4.789H341.372C342.695 4.789 343.767 3.71749 343.767 2.3945C343.767 1.07151 342.695 0 341.372 0Z" fill="#00C1EC"/>
<path d="M341.372 273H341.12C339.797 273 338.725 274.072 338.725 275.395C338.725 276.717 339.797 277.789 341.12 277.789H341.372C342.695 277.789 343.767 276.717 343.767 275.395C343.767 274.072 342.695 273 341.372 273Z" fill="#00C1EC"/>
<path d="M106.514 273.66C78.7374 273.66 56.1398 251.071 56.1398 223.305V220.91H9.64287V212.376L34.1929 189.426C36.8672 186.895 38.6337 184.741 39.6017 182.839C40.608 180.865 41.1166 178.826 41.1166 176.781C41.1166 173.9 40.0502 171.495 38.0212 169.811C36.1016 168.237 33.4109 167.433 30.0311 167.433C27.1271 167.433 24.4254 168.1 21.9863 169.407C20.187 170.374 18.6065 171.67 17.2775 173.266L7.20375 167.652C9.47336 164.623 12.4156 162.147 15.9869 160.271C20.3784 157.959 25.6833 156.784 31.7647 156.784C36.5719 156.784 40.8541 157.565 44.4964 159.107C47.5481 160.397 50.0364 162.174 51.9123 164.404C52.1967 164.738 52.4756 165.099 52.7435 165.476C54.685 168.209 55.6312 171.309 55.6312 174.945C55.6312 178.23 54.9147 181.368 53.5092 184.271C53.0662 185.184 52.4865 186.141 51.781 187.13C50.1786 189.394 47.8707 191.908 44.912 194.614L27.6685 210.545H53.7389C55.0624 210.545 56.1343 209.473 56.1343 208.151C56.1343 206.828 55.0624 205.756 53.7389 205.756H39.9189L48.1551 198.146C51.3545 195.221 53.892 192.444 55.6913 189.913C56.5445 188.716 57.2609 187.524 57.8187 186.376C59.5469 182.817 60.4219 178.974 60.4219 174.956C60.4219 170.352 59.1531 166.23 56.6538 162.715C56.3093 162.229 55.9429 161.753 55.571 161.321C53.2139 158.517 50.113 156.286 46.3613 154.701C42.1284 152.908 37.2172 152 31.7647 152C24.8957 152 18.8362 153.361 13.75 156.04C8.62019 158.741 4.5677 162.513 1.70745 167.247L0.427734 169.368L18.7651 179.591L19.9792 177.683C21.1167 175.896 22.5168 174.573 24.2559 173.633C26.0114 172.687 27.8982 172.233 30.0256 172.233C32.2679 172.233 33.9359 172.665 34.964 173.512C35.5437 173.993 36.3149 174.857 36.3149 176.787C36.3149 178.088 35.9922 179.356 35.3195 180.668C34.614 182.052 33.121 183.834 30.8951 185.938L4.84117 210.299V225.705H51.3873C52.6451 255.007 76.8889 278.455 106.503 278.455C107.827 278.455 108.899 277.383 108.899 276.06C108.899 274.737 107.827 273.666 106.503 273.666L106.514 273.66Z" fill="#00C1EC"/>
</svg>
