<svg width="542" height="280" viewBox="0 0 542 280" fill="none" xmlns="http://www.w3.org/2000/svg">
<path d="M2.66786 114.385C3.99134 114.385 5.06324 113.313 5.06324 111.99V111.739C5.06324 110.416 3.99134 109.344 2.66786 109.344C1.34437 109.344 0.272461 110.416 0.272461 111.739V111.99C0.272461 113.313 1.34437 114.385 2.66786 114.385Z" fill="#DBDBDB"/>
<path d="M2.66786 142.402C3.99134 142.402 5.06324 141.331 5.06324 140.008V139.756C5.06324 138.433 3.99134 137.362 2.66786 137.362C1.34437 137.362 0.272461 138.433 0.272461 139.756V140.008C0.272461 141.331 1.34437 142.402 2.66786 142.402Z" fill="#DBDBDB"/>
<path d="M2.66786 86.3671C3.99134 86.3671 5.06324 85.2956 5.06324 83.9726V83.7212C5.06324 82.3982 3.99134 81.3267 2.66786 81.3267C1.34437 81.3267 0.272461 82.3982 0.272461 83.7212V83.9726C0.272461 85.2956 1.34437 86.3671 2.66786 86.3671Z" fill="#DBDBDB"/>
<path d="M2.66786 170.42C3.99134 170.42 5.06324 169.348 5.06324 168.025V167.774C5.06324 166.451 3.99134 165.379 2.66786 165.379C1.34437 165.379 0.272461 166.451 0.272461 167.774V168.025C0.272461 169.348 1.34437 170.42 2.66786 170.42Z" fill="#DBDBDB"/>
<path d="M2.66786 198.438C3.99134 198.438 5.06324 197.367 5.06324 196.044V195.792C5.06324 194.469 3.99134 193.398 2.66786 193.398C1.34437 193.398 0.272461 194.469 0.272461 195.792V196.044C0.272461 197.367 1.34437 198.438 2.66786 198.438Z" fill="#DBDBDB"/>
<path d="M2.66786 58.2208C3.99134 58.2208 5.06324 57.1493 5.06324 55.8263C5.06324 28.06 27.6609 5.47074 55.4321 5.47074H347.293C369.727 5.47074 389.634 20.6578 395.732 41.9842H385.155V61.5447H397.662V91.804C397.662 93.127 398.734 94.1985 400.058 94.1985C400.063 94.1985 400.074 94.1985 400.079 94.1985C400.085 94.1985 400.096 94.1985 400.101 94.1985C401.425 94.1985 402.497 93.127 402.497 91.804V56.7502H389.945V46.7732H416.82V109.544H397.657V123.567C397.657 124.89 398.729 125.961 400.052 125.961C401.376 125.961 402.448 124.89 402.448 123.567V114.333H421.611V41.9787H400.692C397.761 30.6622 391.192 20.4282 382.048 13.0041C372.264 5.05525 359.915 0.67627 347.282 0.67627H55.4376C25.0194 0.67627 0.272461 25.414 0.272461 55.8209C0.272461 57.1439 1.34437 58.2154 2.66786 58.2154V58.2208Z" fill="#00569F"/>
<path d="M539.368 0.67627C508.95 0.67627 484.203 25.414 484.203 55.8209V125.404C484.203 132.068 478.783 137.485 472.117 137.485H414.556C405.248 137.485 397.674 145.057 397.674 154.362V223.944C397.674 251.711 375.076 274.295 347.305 274.295H55.438C27.6613 274.295 5.06911 251.705 5.06911 223.939C5.06911 222.616 3.9972 221.544 2.67372 221.544C1.35023 221.544 0.27832 222.616 0.27832 223.939C0.27832 254.346 25.0253 279.089 55.4435 279.089H347.305C377.723 279.089 402.47 254.351 402.47 223.944V154.362C402.47 147.698 407.889 142.28 414.556 142.28H472.117C481.425 142.28 488.999 134.708 488.999 125.404V55.8209C488.999 28.0545 511.597 5.46527 539.374 5.46527C540.697 5.46527 541.769 4.39376 541.769 3.07077C541.769 1.74778 540.697 0.67627 539.374 0.67627H539.368Z" fill="#00569F"/>
</svg>
